<?xml version="1.0" encoding="utf-8"?>
<!-- Designed by Vexels.com - 2016 All Rights Reserved - https://vexels.com/terms-and-conditions/  -->

<svg version="1.1" id="Capa_1" xmlns="http://www.w3.org/2000/svg" xmlns:xlink="http://www.w3.org/1999/xlink" x="0px" y="0px"
	 width="1200px" height="1200px" viewBox="0 0 1200 1200" enable-background="new 0 0 1200 1200" xml:space="preserve">
<g>
	<g>
		<g id="Capa_1_1_">
			<path fill="#613203" d="M973.478,581.92c-2.081-1.338-4.46-2.823-6.84-4.46c-10.854-7.434-9.663-9.069-1.634-21.261
				c5.352-8.028,13.231-20.07,20.813-39.547c5.948-15.464,7.285-24.829,4.312-30.924c-2.822-5.946-9.218-8.176-16.651-10.704
				c-8.474-2.825-18.883-6.393-29.288-16.8c-15.312-15.312-10.704-24.528-3.866-38.804c5.057-10.405,11.299-23.489,9.517-41.627
				c-3.717-39.102-12.34-42.52-31.519-50.104c-1.636-0.595-3.569-1.338-5.354-2.081c-9.219-3.717-13.826-6.838-15.164-10.11
				c-1.339-3.272,0.442-7.73,3.418-14.571l1.188-2.527c5.801-13.53-8.472-43.562-17.396-56.644c-4.46-6.69-6.986-8.325-8.917-8.624
				c0.146-1.041,0.146-1.933,0.298-2.973c1.933-18.584,1.188-28.992-2.38-34.938c-3.716-6.245-9.961-6.838-16.502-7.434
				c-8.771-0.891-19.624-1.935-31.219-15.313c-11.597-13.53-21.111-15.758-31.223-18.138c-9.069-2.23-18.435-4.46-31.52-14.867
				c-16.354-13.083-26.019-12.19-33.005-11.594c-5.354,0.445-8.326,0.742-13.082-5.65c-3.72-5.204-6.243-11.15-8.772-17.396
				c-5.498-13.231-11.746-28.099-32.411-40.29c-22.747-13.381-63.63-12.043-74.036-5.65c-2.823,1.635-3.271,3.568-3.271,4.906
				c0.146,3.271,3.865,5.056,5.055,5.501c9.514,4.46,16.057,21.112,19.773,35.087c-6.987-9.366-19.478-22.598-41.479-39.101
				c-34.787-26.167-105.557-12.934-121.168-2.825c-2.974,1.934-4.162,4.015-3.716,6.096c0.742,3.122,4.757,4.014,8.027,4.459
				c29.142,3.42,60.361,44.75,67.199,70.917c1.635,6.69,1.487,11.596-0.743,13.232c-1.042,0.742-5.498,2.528-19.029-6.096
				c-55.751-35.83-118.49-28.396-172.012,19.922c-29.142,26.315-17.099,44.008-10.707,53.375c1.339,1.933,3.42,4.906,3.123,5.798
				c-0.147,0.446-1.933,2.378-18.138,3.271c-41.629,2.379-55.456,41.332-65.716,69.579c-3.716,10.555-6.985,19.625-10.854,24.679
				c-8.175,10.705-1.339,18.139,3.717,23.639c2.676,2.824,5.204,5.65,4.757,7.879c-0.297,1.635-2.229,4.463-10.109,8.625
				c-21.854,11.3-21.262,45.045-20.814,72.103c0.298,13.827,0.594,26.763-2.229,33.897c-6.841,17.543,8.325,34.194,24.527,51.886
				c5.65,6.243,11.596,12.786,16.503,19.327c8.176,10.854-3.42,26.316-16.8,44.305c-14.422,19.477-30.924,41.479-29.735,66.158
				c1.19,26.911,14.569,41.334,28.546,56.646c11.148,12.19,22.747,24.682,28.396,44.456c10.854,37.611,61.399,50.692,80.582,55.603
				c2.229,0.597,4.608,1.188,5.948,1.633c1.189,28.546,3.566,57.834,8.326,68.687c1.933,4.461,4.163,13.231,6.987,24.382
				c11.745,45.792,33.601,130.978,95.448,171.566c71.956,47.132,114.479,66.308,118.937,68.24c1.189,0.892,4.756,3.421,9.813,3.271
				c2.229,0,4.758-0.596,7.437-2.08c0.446-0.298,45.196-22.45,118.344-75.972c59.913-43.414,77.452-129.643,86.822-176.027
				c2.377-11.302,4.162-20.071,5.799-24.679c1.338-3.419,2.526-8.92,3.718-15.76c0.146,2.08,0.444,4.015,0.741,5.5
				c0.744,3.272,2.527,5.649,5.203,6.985c1.787,0.893,3.866,1.189,6.396,1.189c9.517-0.298,23.636-6.84,40.734-14.719
				c11.148-5.207,22.597-10.56,34.044-14.723c39.695-14.42,27.206-61.396,27.059-61.844l-1.636-6.096l-3.271,5.353
				c-0.444,0.743-11.149,17.841-24.382,11c-1.04-0.444-1.636-1.339-1.933-2.676c-4.015-15.163,29.733-68.24,65.713-124.585
				l0.3-0.598c21.558-33.75,28.989-51.142,26.463-62.144C987.155,590.542,980.763,586.528,973.478,581.92z M819.602,722.415
				l-0.146,0.446c-0.147,0.597-22.15,66.754-29.143,87.119c-3.271,9.37-13.976,21.408-30.18,33.896
				c-6.984,5.354-15.759,7.14-24.233,5.056c-13.38-3.418-31.37-9.218-41.334-17.841c-6.392-5.501-13.378-13.231-20.813-21.408
				c-12.636-13.976-25.722-28.247-36.125-31.52c-18.586-5.649-35.979,0.597-45.346,7.731c-4.312,3.271-7.437,6.983-9.068,10.854
				c-1.787-3.718-5.057-7.285-9.663-10.406c-9.663-6.539-27.505-12.043-45.645-5.353c-10.258,3.718-22.598,18.731-34.492,33.302
				c-6.986,8.623-13.68,16.65-19.773,22.45c-9.515,9.067-27.058,15.906-39.995,19.921c-8.624,2.676-17.69,1.338-25.125-3.865
				c-16.651-11.597-27.947-23.046-31.666-32.112c-5.055-12.638-11.892-38.207-16.352-55.305c-2.53-9.961-4.164-17.099-4.312-17.243
				l-2.379-10.26c-1.337-10.558-1.784-24.236,0.447-41.779c3.865-30.03,1.188-39.844-3.567-57.833
				c-1.932-7.136-4.162-15.165-6.394-26.166c-4.459-21.558-1.339-43.858,1.488-65.416c2.23-16.949,4.756-34.493,3.419-51.588
				c-2.229-28.245,15.165-55.603,27.95-75.522c3.866-6.096,7.284-11.446,9.515-15.91c6.243-12.191,25.571-21.853,41.33-29.733
				c5.8-2.975,11.001-5.5,15.018-7.881c4.607,8.177,9.662,15.166,15.758,20.517c2.08,1.785,3.864,3.273,5.498,4.757
				c16.355,14.421,16.95,14.272,48.765,13.231c13.529-0.444,32.114-1.188,60.064-1.188c87.716,0.147,174.836-7.434,210.818-17.543
				c1.187,7.436,5.352,27.058,19.177,53.819c17.244,33.303,21.109,181.378,14.123,199.369c-5.055,12.936-3.123,22.896-1.041,33.454
				c1.188,6.539,2.525,13.232,2.229,21.109c-0.299,10.258,0.296,17.542,0.742,24.382
				C819.453,719.44,819.602,720.779,819.602,722.415L819.602,722.415z M628.56,987.792c-2.379,0.597-6.395,1.045-8.177-0.594
				c-1.19-1.188-1.19-3.717-0.146-7.136c1.933-6.692,9.366-12.341,16.5-17.843c9.069-6.986,18.436-14.271,16.354-23.936
				c-2.677-12.34-51.886-12.045-66.903-11.748c-15.016,0.446-64.077,2.676-66.159,15.166c-1.636,9.813,8.175,16.502,17.543,23.044
				c7.435,5.204,15.165,10.408,17.396,16.951c1.189,3.421,1.189,5.947,0.149,7.137c-1.636,1.784-5.8,1.487-8.178,1.04
				c-5.947-4.755-56.198-44.896-78.351-55.157c-35.532-16.353-45.346-36.424-46.979-43.411c8.175,0.893,26.168-0.598,39.103-8.921
				c14.719-9.516,32.854-14.123,69.28-17.689c40.589-3.864,50.55-22.152,52.628-27.802c1.043-0.597,2.232-1.04,2.529-0.893
				c0,0,0,0,0.146,0.148c4.463,8.918,17.543,24.084,54.115,25.72s54.859,5.352,70.025,14.124c12.19,6.99,28.543,8.028,37.316,7.137
				c-5.797,11.447-24.826,42.817-41.778,45.198C680.447,931.893,634.357,981.398,628.56,987.792z"/>
		</g>
	</g>
</g>
</svg>
